<svg width="12" height="12" viewBox="0 0 12 12" fill="none" xmlns="http://www.w3.org/2000/svg">
<path fill-rule="evenodd" clip-rule="evenodd" d="M11 12C11 12 12 12 12 11C12 10 11 7 6 7C1 7 0 10 0 11C0 12 1 12 1 12H11ZM1.005 11.056V11.054V11.056ZM1.022 11H10.978C10.9827 10.9995 10.9874 10.9988 10.992 10.998L11 10.996C10.999 10.75 10.846 10.01 10.168 9.332C9.516 8.68 8.289 8 6 8C3.71 8 2.484 8.68 1.832 9.332C1.154 10.01 1.002 10.75 1 10.996C1.00732 10.9974 1.01465 10.9987 1.022 11V11ZM10.996 11.056V11.054V11.056ZM6 5C6.53043 5 7.03914 4.78929 7.41421 4.41421C7.78929 4.03914 8 3.53043 8 3C8 2.46957 7.78929 1.96086 7.41421 1.58579C7.03914 1.21071 6.53043 1 6 1C5.46957 1 4.96086 1.21071 4.58579 1.58579C4.21071 1.96086 4 2.46957 4 3C4 3.53043 4.21071 4.03914 4.58579 4.41421C4.96086 4.78929 5.46957 5 6 5V5ZM9 3C9 3.79565 8.68393 4.55871 8.12132 5.12132C7.55871 5.68393 6.79565 6 6 6C5.20435 6 4.44129 5.68393 3.87868 5.12132C3.31607 4.55871 3 3.79565 3 3C3 2.20435 3.31607 1.44129 3.87868 0.87868C4.44129 0.316071 5.20435 0 6 0C6.79565 0 7.55871 0.316071 8.12132 0.87868C8.68393 1.44129 9 2.20435 9 3V3Z" fill="white"/>
</svg>
