<svg width="20" height="18" viewBox="0 0 20 18" fill="none" xmlns="http://www.w3.org/2000/svg">
<path d="M7.5 11.1577V6.84227C7.5 6.46274 7.90624 6.22158 8.23943 6.40332L12.1953 8.56105C12.5427 8.75056 12.5427 9.24944 12.1953 9.43895L8.23943 11.5967C7.90624 11.7784 7.5 11.5373 7.5 11.1577Z" stroke="#151515"/>
<path d="M19.5 4.59655V13.4034C19.5 14.6749 18.6026 15.7696 17.3558 16.0189C12.5 16.9901 7.49998 16.9901 2.64419 16.0189C1.39743 15.7696 0.5 14.6749 0.5 13.4034V4.59655C0.5 3.32511 1.39743 2.23042 2.64419 1.98106C7.49998 1.00991 12.5 1.00991 17.3558 1.98106C18.6026 2.23042 19.5 3.32511 19.5 4.59655Z" stroke="#151515"/>
</svg>
