<svg width="8" height="10" viewBox="0 0 8 10" fill="none" xmlns="http://www.w3.org/2000/svg">
<path fill-rule="evenodd" clip-rule="evenodd" d="M0.645978 5.64598C0.692424 5.59941 0.747599 5.56247 0.808344 5.53727C0.86909 5.51206 0.934211 5.49908 0.999978 5.49908C1.06575 5.49908 1.13087 5.51206 1.19161 5.53727C1.25236 5.56247 1.30753 5.59941 1.35398 5.64598L3.99998 8.29298L6.64598 5.64598C6.73986 5.55209 6.8672 5.49935 6.99998 5.49935C7.13275 5.49935 7.26009 5.55209 7.35398 5.64598C7.44786 5.73986 7.50061 5.8672 7.50061 5.99998C7.50061 6.13275 7.44786 6.26009 7.35398 6.35398L4.35398 9.35398C4.30753 9.40054 4.25236 9.43748 4.19161 9.46269C4.13087 9.4879 4.06575 9.50087 3.99998 9.50087C3.93421 9.50087 3.86909 9.4879 3.80834 9.46269C3.7476 9.43748 3.69242 9.40054 3.64598 9.35398L0.645978 6.35398C0.599415 6.30753 0.562472 6.25236 0.537265 6.19161C0.512059 6.13087 0.499084 6.06575 0.499084 5.99998C0.499084 5.93421 0.512059 5.86909 0.537265 5.80834C0.562472 5.7476 0.599415 5.69242 0.645978 5.64598V5.64598Z" fill="white"/>
<path fill-rule="evenodd" clip-rule="evenodd" d="M4 0.5C4.13261 0.5 4.25979 0.542143 4.35355 0.617157C4.44732 0.692172 4.5 0.793913 4.5 0.9V8.1C4.5 8.20609 4.44732 8.30783 4.35355 8.38284C4.25979 8.45786 4.13261 8.5 4 8.5C3.86739 8.5 3.74021 8.45786 3.64645 8.38284C3.55268 8.30783 3.5 8.20609 3.5 8.1V0.9C3.5 0.793913 3.55268 0.692172 3.64645 0.617157C3.74021 0.542143 3.86739 0.5 4 0.5V0.5Z" fill="white"/>
</svg>
